/* XPM */
static char *_504117212864[] = {
/* columns rows colors chars-per-pixel */
"64 64 250 2 ",
"   c #4B3E23",
".  c #4C4229",
"X  c #544727",
"o  c #4B4835",
"O  c #59523A",
"+  c #685A36",
"@  c #6B562D",
"#  c #6D613D",
"$  c #786839",
"%  c #644A1F",
"&  c #565341",
"*  c #645E43",
"=  c #6A6244",
"-  c #746943",
";  c #7D724B",
":  c #7C7555",
">  c #756E51",
",  c #7D7963",
"<  c #39301B",
"1  c #BD771A",
"2  c #A96C18",
"3  c #916F31",
"4  c #A97B25",
"5  c #A67B38",
"6  c #BB7B26",
"7  c #8E6023",
"8  c #C67C19",
"9  c #D37F0F",
"0  c #CC7F20",
"q  c #857548",
"w  c #887D56",
"e  c #937F46",
"r  c #A67E46",
"t  c #BB8A2A",
"y  c #A9853C",
"u  c #B58B38",
"i  c #BA983A",
"p  c #B79333",
"a  c #CC831C",
"s  c #C6851C",
"d  c #D3851C",
"f  c #D58A1C",
"g  c #DA8B1D",
"h  c #D98715",
"j  c #DE931D",
"k  c #D4941F",
"l  c #D18916",
"z  c #E59A1E",
"x  c #E4971B",
"c  c #E9A31C",
"v  c #F3AA19",
"b  c #C78926",
"n  c #DA8D21",
"m  c #D48B24",
"M  c #C79529",
"N  c #DD9223",
"B  c #DC9B25",
"V  c #D5932B",
"C  c #D89828",
"Z  c #C88D35",
"A  c #C99639",
"S  c #D89A36",
"D  c #E19522",
"F  c #E49B23",
"G  c #E59C28",
"H  c #E39E36",
"J  c #D9A42B",
"K  c #C9A739",
"L  c #D9A836",
"P  c #DEB43B",
"I  c #D2A62D",
"U  c #E5A225",
"Y  c #EBA424",
"T  c #EDAB25",
"R  c #EAA529",
"E  c #EDAB2A",
"W  c #E4A62C",
"Q  c #F2AC24",
"!  c #F1AE2A",
"~  c #ECB42B",
"^  c #EAB42B",
"/  c #F4B325",
"(  c #F4B42C",
")  c #F5BA2E",
"_  c #FABB2D",
"`  c #FAB828",
"'  c #E7A835",
"]  c #E5B233",
"[  c #E9B738",
"{  c #F4BC34",
"}  c #FABD31",
"|  c #F3B636",
" . c #FEC22D",
".. c #EDC239",
"X. c #FDC433",
"o. c #FECA35",
"O. c #FCC439",
"+. c #FECC3A",
"@. c #F5C439",
"#. c #FFD23C",
"$. c #FBD43D",
"%. c #98844A",
"&. c #8A825D",
"*. c #9A8A57",
"=. c #8D804E",
"-. c #AA8745",
";. c #B98C4A",
":. c #BA964A",
">. c #A5935B",
",. c #AF9355",
"<. c #BEA65C",
"1. c #928A67",
"2. c #AA9B67",
"3. c #AA9D72",
"4. c #B8A667",
"5. c #B8AA78",
"6. c #AEA271",
"7. c #CA9B48",
"8. c #D49A45",
"9. c #C69D56",
"0. c #CE8F40",
"q. c #C7A648",
"w. c #D8A749",
"e. c #DAB746",
"r. c #C6A759",
"t. c #D6A856",
"y. c #DBB757",
"u. c #CCB255",
"i. c #E4AA47",
"p. c #E8BA48",
"a. c #F3BD49",
"s. c #E8B858",
"d. c #C3AB60",
"f. c #C7A966",
"g. c #D6AC63",
"h. c #D8B767",
"j. c #C4AC76",
"k. c #CAB878",
"l. c #D5BB76",
"z. c #CBB76B",
"x. c #ECBC62",
"c. c #E4BC67",
"v. c #E4BD72",
"b. c #DCC444",
"n. c #E9C54A",
"m. c #FCCC44",
"M. c #F4CB4A",
"N. c #F6C749",
"B. c #FFD444",
"V. c #FFD945",
"C. c #FED54B",
"Z. c #FEDB4B",
"A. c #F4D64A",
"S. c #EAC658",
"D. c #F6C955",
"F. c #FED553",
"G. c #FFDB53",
"H. c #FFDB5B",
"J. c #F9D55A",
"K. c #EDD54B",
"L. c #FEE14D",
"P. c #FFE454",
"I. c #FFE85A",
"U. c #DCC576",
"Y. c #DDC26A",
"T. c #ECCC6C",
"R. c #E7C667",
"E. c #F5C868",
"W. c #EDD269",
"Q. c #FEDB64",
"!. c #FEDC6E",
"~. c #F8D467",
"^. c #E7C976",
"/. c #ECD578",
"(. c #F6D273",
"). c #FEDC72",
"_. c #FCDB7B",
"`. c #F7D678",
"'. c #F3CA74",
"]. c #FFE36D",
"[. c #FFE263",
"{. c #FFE274",
"}. c #FEE37B",
"|. c #FFEA7B",
" X c #FDE775",
".X c #B3AB87",
"XX c #B9B594",
"oX c #B2AC8A",
"OX c #C9BB85",
"+X c #D9BC88",
"@X c #C7B792",
"#X c #C0BCA4",
"$X c #CEC189",
"%X c #D8C786",
"&X c #DBC897",
"*X c #D2C89A",
"=X c #E7CA88",
"-X c #E9D58A",
";X c #FCDD85",
":X c #F5D988",
">X c #E0D095",
",X c #E8D599",
"<X c #F5DC97",
"1X c #E3CB95",
"2X c #FEE484",
"3X c #FEEB84",
"4X c #FFE48B",
"5X c #FFED8B",
"6X c #F4E287",
"7X c #F6E294",
"8X c #FBE493",
"9X c #FFEA94",
"0X c #FCE69C",
"qX c #FEEB9C",
"wX c #F5E59B",
"eX c #FFF294",
"rX c #FEF69B",
"tX c #F7EA92",
"yX c #CDC8A7",
"uX c #D6D0AE",
"iX c #E7D7A6",
"pX c #E8DCB4",
"aX c #F3DDA4",
"sX c #FEEBA3",
"dX c #FEEDAB",
"fX c #F6E5A6",
"gX c #FEF4A4",
"hX c #FFF2AC",
"jX c #FFFDA8",
"kX c #EDE4B9",
"lX c #FDECB2",
"zX c #F5E9B7",
"xX c #FEF4B3",
"cX c #FFFBB4",
"vX c #FFF4BC",
"bX c #FFFDBC",
"nX c #EEE2A7",
"mX c #EFE7C5",
"MX c #F3EDC5",
"NX c #FFF5C2",
"BX c #FFFAC4",
"VX c #FBF4CA",
"CX c #FFFACD",
"ZX c #F4F1CD",
"AX c #FEFCD2",
"SX c #FEFEDC",
"DX c #F8F5D3",
"FX c #F2EDD1",
"GX c #FFFFE4",
"HX c None",
/* pixels */
"HXHXHXHXHXHXHXHXHXHXHXHXHXHXHXHXHXHXHXHXHXHXHXHXHXHXHXHXHXHXHXHXHXHXHXHXHXHXHXHXHXHXHXHXHXHXHXHXHXHXHXHXHXHXHXHXHXHXHXHXHXHXHXHX",
"HXHXHXHXHXHXHXHXHXHXHXHXHXHXHXHXHXHXHXHXHXHXHXHXHXHXE.).2XeXqXqX9X9X4X/.).E.HXHXHXHXHXHXHXHXHXHXHXHXHXHXHXHXHXHXHXHXHXHXHXHXHXHX",
"HXHXHXHXHXHXHXHXHXHXHXHXHXHXHXHXHXHXHXHXHXHXD.;XgXbXcXjXeXtX6X6X/.}. X}. X|. X{.~.D.HXHXHXHXHXHXHXHXHXHXHXHXHXHXHXHXHXHXHXHXHXHX",
"HXHXHXHXHXHXHXHXHXHXHXHXHXHXHXHXHXHXHXHX;XxXBXcXwXU.u.u.<.q.K K K K K K K K P n.F.P.[.Q.a.HXHXHXHXHXHXHXHXHXHXHXHXHXHXHXHXHXHXHX",
"HXHXHXHXHXHXHXHXHXHXHXHXHXHXHXHXHXN.8XbXbXtXz.<.q.P b.P.I.I.P.P.P.P.P.Z.C...P I M I ] $.G.~.a.HXHXHXHXHXHXHXHXHXHXHXHXHXHXHXHXHX",
"HXHXHXHXHXHXHXHXHXHXHXHXHXHXHXHX6XbXbX-X<.K b.G.I.I.P.P.G.L.Z.[.W.V.B.V.B.G.V.L.$.{ I t J +.H.~.p.HXHXHXHXHXHXHXHXHXHXHXHXHXHXHX",
"HXHXHXHXHXHXHXHXHXHXHXHXHXHXE.hXcX-X<.K K.I.I.P.[.6XL.P.A.G.[.|. XG.C.B.$.G.C.G.n.o.$.@.J M L G.{.'.HXHXHXHXHXHXHXHXHXHXHXHXHXHX",
"HXHXHXHXHXHXHXHXHXHXHXHXHX;XbXgX<.K K.I.P.L.Z.P.|.rX5X/.K.n./. X].W.e.+.F.H.F.M.] o.o.X.+.X.J Z R.5X<X' HXHXHXHXHXHXHXHXHXHXHXHX",
"HXHXHXHXHXHXHXHXHXHXHXHXqXcX-X:.b.P.[.L.V.P.A./.tXeXeXb.#.$.K.].Q.n. ...p.M.V.m.@.X. .O.N.) X.) M g.gXlXs.HXHXHXHXHXHXHXHXHXHXHX",
"HXHXHXHXHXHXHXHXHXHXa.gXjXl.p L.P.V.3X3X3XR.B.@.W.5X/.S.+.o.D.e.P e.X.o._ @...L ] ) m.F.C.D.S.( _ C 9.vXVXc.HXHXHXHXHXHXHXHXHXHX",
"HXHXHXHXHXHXHXHXHXa.gXrXd.I L.L.V.V.3XrXqXb.$.$.Z.b.[ [ @.o.{ X.o.[ X.X.o.{ W } { { ] D.H.~.' ( ( } z ;.MXAXc.HXHXHXHXHXHXHXHXHX",
"HXHXHXHXHXHXHXHXHXsXrXr.I L.V.$.A.T.tX5X5X!.+.+.@.@.o. . . .o.O.X.X.X._ _ ) } } _ ) / ~.(.`.p.( ( ( | c ;.zXVXc.HXHXHXHXHXHXHXHX",
"HXHXHXHXHXHXHXHX9XrXu.I P.V.$.J.M.....}.b.p.[ X.X.X.m.~.}.8X9X9X9X2X}.).J.N.} ( ) ( ) s.L i.L ! c E.v.v z 0.zXxXw.HXHXHXHXHXHXHX",
"HXHXHXHXHXHXHX;XrXu.I V.V.3X X:X[ +.#.p.{ o. .O.!.0XxXxXjXrXeX3X3X|. X X].Q.Q.N.| ! ! R ( ! T x.<XNXaXa.' x ;.qX0XHXHXHXHXHXHXHX",
"HXHXHXHXHXHXE.eXR.M V.+.X. X5X XJ.X.X.X. .X.).xXcXgXeXeXtX3X|. X].].[.H.G.C.C.C.C.N.! E E R E G aXVXNX1XS E d q.3X'.HXHXHXHXHXHX",
"HXHXHXHXHXHX5X].p o.+.o.M.6X X!.S.[ o.` D.dXcXrXeXeX5X3X|.].].].J.G.Z.C.C.B.+.+.o.o.O.| Y R Y R aXkXfXV z G G 8 y.|.y.HXHXHXHXHX",
"HXHXHXHXHX`.|.A ^ +.o.X.p.] D.e.~  .` ).vXgXeXeX3X3X X].].6XkXvXiXl.M.#.#.+.+.O.O.X.X.X.( U F ' w.N g.C D D D G 6 m.~.HXHXHXHXHX",
"HXHXHXHXN.3Xn.M o._ X.D. . .{ ' X.` ;XcXeX5X5X|.3XwXfXwXnXMXMXbXBXAXmX`.o.O.o.X.@.X.X._ } ( G F D F j H G D i.V d M B.s.HXHXHXHX",
"HXHXHXHX`.I.p _ N.F.Q.S.) } } ) ` ;XxX5X3X3X X7XkXVXbXvXbXvXcXcXbXBXCXSXD. .X.X.X.) _ { { ) E F D D D H D.D.n.d D 1 E F.HXHXHXHX",
"HXHXHXa.].P C o.{ J.H.G.F.[ ) / (.hX3X3X|. X XkXbXcXxXcXcXcXvXvXvXNXvXSXnX ._ X.} ) ) ) ( ( ( E N N D g N.B.+.[ N m s o.y.HXHXHX",
"HXHXHX~.G.b )  ._ F.F.C.L E ! D.hX|.|.{.].H.%XBXxXcXxXxXvXNXNXNXBXNXNXAXpX^ ) ) ) ( ( ~ ~ ! E E G n g ' n.X.( C m N 1 v N.HXHXHX",
"HXHXHXQ.[ M X.) { p.L [ E ( ( fX|.{.[.[.P.M.>XBXcXbXvXBXNXNXNXNXNXNXNXCX,X~ ) / / ( E T T T T R R N n V a W C m n n a s } w.HXHX",
"HXHXD.G.M R ) ( ( ' ! J W Q `.5X[.[.H.G.Z.n.nXCXvXvXBXNXNXNXNXNXNXNXlXCX=XQ ( a.-XfX-Xh.L U Y U Y B g n n m a m n f n 1 T i.HXHX",
"HXHXJ.#.s ( ! | | Q Q ! ! ' 0XP.G.G.C.B.+.B.ZXCXNXNXNXNXNXNXNXvXlXlXdXMXw.v R.nXqX4X2X2X:X/.' z F F f n n g D D n S N 8 g p.HXHX",
"HXHXH.] m ( | N.o.[ ! R c /. XZ.C.B.B.$.o. .dXGXVXCXBXNXNXvXvXxXdXsXdX>Xc S.wX2XQ.J.F.F.G.2X:Xx x D n d g d x Q ' B d d 8 ' Z HX",
"HX[ G.J B E p.M.z.$X@Xj.5.U.U.$X$Xk.u.l.OXk.$XuXyXuXuXyXuXyX*X,XyXyXyX@Xj.$X2XQ.R.OX$XOX$X%X%Xd.j.j.:.5.j.j.j.q.f.j.<.n 8 D A HX",
"HXp.G.b Y R U p.XXfXqXsXwX1.3..X<XwX: XX0XsX0XqXk., XXaX-X&.: OX.X<X8XqXqX3.S.C.l.zX0XqX<Xw : yXlX&.&.NXsXsX&X: uXfX1.t 8 g w.HX",
"HXD.H.t Y Y ' S.-.U.{.!.R.# y 3 *.h.# %.U.!.!.!.<., XX$X$ o %./.f.j.{.!.].2.:.B.z.<X!.{.<.. %.&X<.< *.4X!.).r.+ -.^.# t f d S HX",
"HX~.~.6 Y F G D A >X_.).T.= i o.:.4.= #XXX].).).`.>.5.oXo >.T.!.).k.}.).{.l.%.q.3.<X!.).r.+ 9.&Xw % ,.9X!.{.d.@ y %X- 4 j 8 S HX",
"HX_.^.b Y F ' G V >X{.{.T.# M y.$X> o uXyX^.{.).).U.1.O # U. XQ.{.4.:X!.!.(.*.6..X8X!.).d.@ 7.OXO 7 9.8X!.{.4.@ M 4.# t z 8 H +X",
"HX;X=Xb F h a.`.7.>X{.).T.# p *X.XoX.X,XnX5.{.).).).2.q t K T. XY.e $X}.).).U..X3.7X).{.d.+ S *.. 2 9.wX!.{.d.+ m 5 o 4 c a G &X",
"HXsX=X8 F i.<XvXpX&X{.).T.- 6.fX- .XfX0X9Xk.U._.).).k.2.W.K s s.u..X5.}.).).|.>.&.8X).).d.+ Z c.:.8 9.7X!.{.4.+ b G 6 k T d G &X",
"HXlX1X8 G g.zXNXkX>X}.).T.- .X/.- 5.9X4X2X/.5.}.!.).`.2.n.H.S.w.g.*X3.:X).).(.X 1.<X!.{.d.+ Z x.t.g 9.7X!.{.d.+ b Y W / Q k ' &X",
"HXzXiX8 D h v.mX5.>X).{.T.- 3 4.; 6.2X).!.[.z.^.).).{.z.,.m.J.M e.$X&.k.}.{.d.. *.8X!.).d.+ 7.'.8.x f.7X!.{.<.+ C N B U / N | &X",
"HXlXpX8 D h i.0.b &X).).T.= p ,.& 2.).!.H.J.5.5.{.).{.`.>.s.S S s.$X; 3.2X{.%.O 2.8X).{.d.* l.l.j F r.<X!.{.<.# b / / ~ / B @.+X",
"HXaXzX6 n m n h Z &X}.).T.# t B e k.Q.G.C.k.oX; =X).!.{.k.%.N i.w.OXq *.:X!.+ # 5.<X!.{.r.= j.V F Y f.7X!.].<.# J  . . .~ W N.HX",
"HX=XlX6 n n V x.A >X{.).T.+ t T F R.Q.C.y.yX+ %.f.{.).).`.*.A i.S *Xw 5 U.R.. 7 <.<X!.).f.O b T Y Q r.wX).{.<.# J  . . .~ ^ N.HX",
"HX^.vX0.h n n ;X%XiX|.}.).>.u U F y.Q.n.*XwX=.M d.9X X{.{.=X2.' 9.lXl.,.k.4.o :.j.9X]. XT.%.C E ! ( k.qX{. X^.*.] m.@.o.^ @.p.HX",
"HXt.gX9.9 m s./.XX2.%.%.%.*.; N F '.R.oX5.%.w 5 k.6.e %.*.*.> r XX2.>.w 2.* + 6.XX>.%.%.%.1.%.` _ w.XX*.e %.%.&.-...L $.P o.w.HX",
"HXHX9Xy.8 V w.n.:.      . . % b x T.`.y % .   3 -.X o       X 5 3 .   . -.3 %.c.w O     X . 7 [ X.p.3   X X X X 3 L m.B.L +.i HX",
"HXHX_.D.6 j g N ' 1 b s s 0.Z g j H :XS.S b b Z i.g.5 1 u 9.Z S w.0.7.7.y.x.c.'.`.&Xt.C J J J } o.$.M I L P L p I I N.M.W m.3 HX",
"HXHXc.G.b j N z g F z F U U s.x N j V l.'.s.s.x.v.7.g n t.s.i.i.s.x.E.E.E.(.`.;X;XdXR.` X.X.o.o.o.@.t B.B.B.F.F.G.D.H.n.T S.HXHX",
"HXHXq.G.J a F z G E W [ B z [ H g N g f S 7.t.7.m n n b v.s.s.s.x.E.E.'.`._.;X2X6XhXY. .X.o.o.$.$.M p.F.F.H.p.Q.H.Q.).w._ 7.HXHX",
"HXHXHXJ. .8 Y F F ) | T F T Y s.N n n n n g d n n n n A =Xx.x.E.'.(.`._.;X2X4X4X4XlXp.o.o.+.$.A.P K H.N.N.a.G ).).{./.B a.5 HXHX",
"HXHXHXy.o.s j T R ( / T U U T ( 8.n n n m n n n N N x s.<X'.'.(.`._.;X2X4X4X4X2XqXiX[ #.$.#.A.$.u ~.Q.~.W G F B c.5Xs.x w.HXHXHX",
"HXHXHXHXM.T s T ' W c B N Y Q / | V g n n n n D D D F ' lX;X`._.;X4X4X4X4X4X9XsXzXy.$.B.B.Z.L.u W.].). X' h g h.8X<XV ' r HXHXHX",
"HXHXHXHXw._ l T T c J f / ` _ | ` ' V g n D D D G Y R c '.zX9X4X4X4X9XqXfXnXfX>Xu.$.V.V.Z.L.p Y.2X}.6X`.t.c.b -XgXh.h i.HXHXHXHX",
"HXHXHXHXHXn.c s ` / / U )  .| C  . .' V F G G R R R ! ! / h.kXdXsXdXfX%Xe.S.b.n.V.Z.Z.P.A.u U.5X4XqX:X-XsXhX=XwXaXm R r HXHXHXHX",
"HXHXHXHXHXq.| f U ` ) _ W ' C n { { o.[ C F Y E ! ! ( | } _ [ Y.U.U.e.@.#.#.V.V.L.P.P.b.-.-X9X;X' x.V 1XdXdXlXvXt.h 9.HXHXHXHXHX",
"HXHXHXHXHXHXi.F s )  . .) N g n m W X.o...C J ` _ _ } } X.X.o.o.X.#.$.V.V.Z.Z.L.I.A.i 4.8XqX0XhXi.9 g x.lXlXBX+X9 i.HXHXHXHXHXHX",
"HXHXHXHXHXHXHXi.h b  . .O.H 8 m ' $.X.N.B.m.P M W { o.o.o.+.+.#.B.V.$.V.L.P.P.K.K ,.%XhXsXsXlX<Xm g m Z =XCXiXb H -.HXHXHXHXHXHX",
"HXHXHXHXHXHXHX:.' 8 C #.{ J [ V [ B.C.a.n.G.H.J.e.K I ] ..$.#.V.V.L.L.A.K.q.:.4.%XhXdX:XvXvXlX1X1Xt.8.DXCXkXZ D 9.HXHXHXHXHXHXHX",
"HXHXHXHXHXHXHXHX7.H 8 I B.B.B.M.N.M.D.{ { N.S.Q.{.{./.h.u.q.q.q.q.q.<.<.j.=XfXxXxXlXvXH s.s.+XCXCXzX&XAXmXA F t.HXHXHXHXHXHXHXHX",
"HXHXHXHXHXHXHXHXHX9.G 9 L F.F.F.H.S.] X.X.e.`._.!.).5X9X9X9X8X<XwX0XsXgXlXlXlXlXvXvXvXi.f m pXCXVXVXSXmX0.F t.HXHXHXHXHXHXHXHXHX",
"HXHXHXHXHXHXHXHXHXHXr.H d L Q.Q.Q.{.J.~ ~ S.2X5X!.} ).s.<XqXsX0X<XxXlXlXNX:Xi.VXlXzXg.m J B s.VXCXSXpXA R h.HXHXHXHXHXHXHXHXHXHX",
"HXHXHXHXHXHXHXHXHXHXHX9.| F K T.}.}.S.Y./.c.:X;XD.! c v.hXdXNX:X8.VXNXlXzXx.0 S t.ZXZXiXS +XiXMXSX&XV ' g.HXHXHXHXHXHXHXHXHXHXHX",
"HXHXHXHXHXHXHXHXHXHXHXHX9.a._ J Y.4X4X9X0XqX0X^.' Q x s.NX,Xi.H j H l.mXt.0 G g pXAXAXVX+XSXGXFXg.D a.f.HXHXHXHXHXHXHXHXHXHXHXHX",
"HXHXHXHXHXHXHXHXHXHXHXHXHX5 s.m.~ u.-XdXhXsXdXvX:Xn l.h.aXMXg.9 g 0.mXAXDXv.m S v.SXAXAXSXDX&XS ] R.-.HXHXHXHXHXHXHXHXHXHXHXHXHX",
"HXHXHXHXHXHXHXHXHXHXHXHXHXHXHXr.J.o.^ h.,XvXvXvXaX+XAXVXVXDX<X0 m t.DXAXSX=X+XFXiXAXGXFX&Xw.W D.g.3 HXHXHXHXHXHXHXHXHXHXHXHXHXHX",
"HXHXHXHXHXHXHXHXHXHXHXHXHXHXHXHX5 y.C. .] t.&XzXAXSXAXCXCXDX1XpXFX+XVXDXAXZXGXGXSXkXl.w.W M.Y.r HXHXHXHXHXHXHXHXHXHXHXHXHXHXHXHX",
"HXHXHXHXHXHXHXHXHXHXHXHXHXHXHXHXHXHXr t.N._ c C t.+XiXMXFXSXGXGXGXGXSXDXMXkXiXl.w.L ' D.h.-.HXHXHXHXHXHXHXHXHXHXHXHXHXHXHXHXHXHX",
"HXHXHXHXHXHXHXHXHXHXHXHXHXHXHXHXHXHXHXHXHX:.i.a.Y x h m S 8.9.t.g.r.t.8.S V U ' N.c.r.3 HXHXHXHXHXHXHXHXHXHXHXHXHXHXHXHXHXHXHXHX",
"HXHXHXHXHXHXHXHXHXHXHXHXHXHXHXHXHXHXHXHXHXHXHX7 5 A S S n n n n g N C ' i.w.q.-.3 HXHXHXHXHXHXHXHXHXHXHXHXHXHXHXHXHXHXHXHXHXHXHX",
"HXHXHXHXHXHXHXHXHXHXHXHXHXHXHXHXHXHXHXHXHXHXHXHXHXHXHXHXOX@X&X&X&X&X+X@XHXHXHXHXHXHXHXHXHXHXHXHXHXHXHXHXHXHXHXHXHXHXHXHXHXHXHXHX"
};
