/* XPM */
static char *_504117196089[] = {
/* columns rows colors chars-per-pixel */
"16 16 198 2 ",
"   c #A6752F",
".  c #A97129",
"X  c #A57D31",
"o  c #AF8838",
"O  c #B6833A",
"+  c #BC9339",
"@  c #DE8F1D",
"#  c #DB901E",
"$  c #E1941E",
"%  c #C0852B",
"&  c #D39323",
"*  c #DA9C20",
"=  c #D69629",
"-  c #C58B33",
";  c #CE953C",
":  c #DB9934",
">  c #DA9A37",
",  c #D09439",
"<  c #D79B3B",
"1  c #D29D3E",
"2  c #E09926",
"3  c #E39D27",
"4  c #E19F29",
"5  c #DEA230",
"6  c #DEB13F",
"7  c #E0A228",
"8  c #EBA32B",
"9  c #E5A92E",
"0  c #EEAA28",
"q  c #EAAA2E",
"w  c #F0AB24",
"e  c #F1AF2A",
"r  c #EEB02C",
"t  c #EFBA2D",
"y  c #FABD29",
"u  c #E7A730",
"i  c #E2A136",
"p  c #E2B333",
"a  c #EEB531",
"s  c #ECB03C",
"d  c #E6B93A",
"f  c #EEB838",
"g  c #EEBA39",
"h  c #F0B531",
"j  c #F0B335",
"k  c #F3BA35",
"l  c #F2BB36",
"z  c #F6BA34",
"x  c #F5BF3B",
"c  c #F1C037",
"v  c #F6C138",
"b  c #F7C23C",
"n  c #9E8853",
"m  c #AA8D4D",
"M  c #BC8C41",
"N  c #B88F4B",
"B  c #B1914D",
"V  c #AD9156",
"C  c #AE9954",
"Z  c #AA965A",
"A  c #B19953",
"S  c #B8A258",
"D  c #BFA15D",
"F  c #BEA45C",
"G  c #BAA463",
"H  c #B0A57C",
"J  c #C59541",
"K  c #C09546",
"L  c #C39C4D",
"P  c #DBA14A",
"I  c #DDB049",
"U  c #C1A550",
"Y  c #C3A15B",
"T  c #D2A350",
"R  c #CCB45F",
"E  c #E2A743",
"W  c #ECB644",
"Q  c #E1B54F",
"!  c #E8BA4A",
"~  c #EDBD4F",
"^  c #E3AE50",
"/  c #E1B256",
"(  c #E6BA52",
")  c #EBBA53",
"_  c #EDB957",
"`  c #E0B55D",
"'  c #C1A861",
"]  c #C3AB61",
"[  c #C0A862",
"{  c #D6AC67",
"}  c #C7B16D",
"|  c #CCB26C",
" . c #D5B061",
".. c #D1B667",
"X. c #D7BB67",
"o. c #D7BB69",
"O. c #D9BE6B",
"+. c #D8B874",
"@. c #E5BA66",
"#. c #E9BE68",
"$. c #E9BD6D",
"%. c #E4BD70",
"&. c #E2BC7C",
"*. c #EEC047",
"=. c #F3C043",
"-. c #F5C740",
";. c #F7C946",
":. c #F5CD44",
">. c #F8C840",
",. c #FDCB41",
"<. c #F8C845",
"1. c #FECF45",
"2. c #F4C448",
"3. c #F7C44D",
"4. c #F1CC4B",
"5. c #F9CC49",
"6. c #F2D04F",
"7. c #F5D34E",
"8. c #EECA54",
"9. c #E7C15B",
"0. c #F2C751",
"q. c #F4C653",
"w. c #F3C559",
"e. c #F0D251",
"r. c #F7D054",
"t. c #F9D756",
"y. c #F6D855",
"u. c #FBD856",
"i. c #FAD25B",
"p. c #FAD758",
"a. c #FBD35E",
"s. c #DAC06F",
"d. c #DAC071",
"f. c #DFC676",
"g. c #E6C267",
"h. c #E2C269",
"j. c #E3C56D",
"k. c #F4CD61",
"l. c #F3C668",
"z. c #F0C56E",
"x. c #EED363",
"c. c #EFD964",
"v. c #ECD16B",
"b. c #EFD26A",
"n. c #F7D365",
"m. c #F3DD65",
"M. c #F7DE64",
"N. c #FDDE65",
"B. c #F5D16B",
"V. c #F3D16D",
"C. c #FCD668",
"Z. c #E9CF75",
"A. c #EACE74",
"S. c #E1C47D",
"D. c #F4D575",
"F. c #F0D279",
"G. c #F0D37E",
"H. c #FAD77E",
"J. c #F1DA7F",
"K. c #FFE565",
"L. c #FFE47A",
"P. c #C8BD8E",
"I. c #D0C79E",
"U. c #E3C281",
"Y. c #E6C180",
"T. c #EDCE87",
"R. c #EBD283",
"E. c #EFD782",
"W. c #EFD08D",
"Q. c #EAD48F",
"!. c #F2D380",
"~. c #F0D585",
"^. c #F5D982",
"/. c #F3DA85",
"(. c #F5D884",
"). c #F2D78D",
"_. c #F4D68F",
"`. c #F1DD88",
"'. c #F8DD8E",
"]. c #EDCE94",
"[. c #EED191",
"{. c #F0D193",
"}. c #F1D394",
"|. c #F5D995",
" X c #F8E182",
".X c #FEE781",
"XX c #FBE184",
"oX c #FEE48D",
"OX c #FEEF94",
"+X c #F3E1A6",
"@X c #F7E3AA",
"#X c #FBEDA9",
"$X c #FBF1A6",
"%X c #FCF4B1",
"&X c #FDF1C2",
"*X c #FFFCC9",
"=X c #FFFECC",
"-X c None",
/* pixels */
"-X-X-X-X-X-X/.`.J.V.-X-X-X-X-X-X",
"-X-X-X-Xb.c.m.y.7.:.c g -X-X-X-X",
"-X-X-Xx.M.t.r.5.<.v b =.) @.-X-X",
"-X-X8.p.;.a.L..XN.1.z s z.^ -X-X",
"-X*.>.x C.OX$X%X#X,.y 0 i u 5 -X",
"-Xa h 3.K. X=X*X&Xw.q.j $ 2 # 1 ",
"~ 9 g...R R.I.P.Q.j.E.} Y  .K , ",
"#.E G.S H ^.] U A.s.f.m D o.X < ",
"S.P ^.C O.Z.D./ | ] d.L _ X.# W ",
"$.> G o ( Z F B V n G + I C 6 *.",
"-X7 # = : ; - T ` !.j.t d 6 4.J ",
"-X7 w e 3 # 8 H.oX^.u.4.B.l./ -X",
"-X-Xr q k f k -.6.e.v.).g.|.. -X",
"-X-X% 3.i.n.k.F.E.T.}.W.@XO -X-X",
"-X-X-X-X9.'._.}.].].@XS.  -X-X-X",
"-X-X-X-X-XM { &.U.+.N -X-X-X-X-X"
};
