/* XPM */
static char *_504117204149[] = {
/* columns rows colors chars-per-pixel */
"32 32 222 2 ",
"   c #725F35",
".  c #7B6B3C",
"X  c #796537",
"o  c #786940",
"O  c #8E7135",
"+  c #937A3C",
"@  c #A77C29",
"#  c #B47C2A",
"$  c #A17430",
"%  c #D27F13",
"&  c #877546",
"*  c #BA8535",
"=  c #BE9734",
"-  c #D3841B",
";  c #DA8B1E",
":  c #D58817",
">  c #DF931C",
",  c #D6911E",
"<  c #C5831C",
"1  c #E29B1E",
"2  c #E1961E",
"3  c #EFAC1F",
"4  c #CB8D26",
"5  c #D58D22",
"6  c #D98D23",
"7  c #D68D2B",
"8  c #C9942E",
"9  c #DF9323",
"0  c #D4962C",
"q  c #DA9429",
"w  c #DC9C2C",
"e  c #D79426",
"r  c #C48C36",
"t  c #C39937",
"y  c #DD9D34",
"u  c #DB9B39",
"i  c #E19725",
"p  c #E29A24",
"a  c #E49D2A",
"s  c #E09E39",
"d  c #DCA326",
"f  c #D8A32B",
"g  c #DDA234",
"h  c #DCAA3C",
"j  c #DCB43D",
"k  c #E5A323",
"l  c #EBA524",
"z  c #EEAB26",
"x  c #EBAB2D",
"c  c #E5A72A",
"v  c #F0AC2F",
"b  c #EAB02D",
"n  c #F7B223",
"m  c #F3B42C",
"M  c #F5BA2E",
"N  c #FABD2C",
"B  c #F8B72F",
"V  c #E3AE3B",
"C  c #E7A837",
"Z  c #E4B437",
"A  c #ECB335",
"S  c #E4B43C",
"D  c #EAB93A",
"F  c #F2B533",
"G  c #F2BC34",
"H  c #F3BE3B",
"J  c #FFC32E",
"K  c #EDC33E",
"L  c #FBC434",
"P  c #FECA34",
"I  c #F4C23D",
"U  c #FAC53A",
"Y  c #FCCA3C",
"T  c #F6C436",
"R  c #FED53D",
"E  c #9D874A",
"W  c #9C8547",
"Q  c #9B8955",
"!  c #8E8358",
"~  c #A58A49",
"^  c #A4925B",
"/  c #AA985C",
"(  c #B19952",
")  c #B29C59",
"_  c #AE8C4C",
"`  c #BDA75F",
"'  c #998E64",
"]  c #9E9367",
"[  c #908A72",
"{  c #8A8361",
"}  c #A39562",
"|  c #A89B69",
" . c #B49C62",
".. c #B9A567",
"X. c #A9A079",
"o. c #B9AA76",
"O. c #BFB27D",
"+. c #CC9C4B",
"@. c #C99848",
"#. c #D69E44",
"$. c #D19E52",
"%. c #CFA443",
"&. c #D9A747",
"*. c #DEB947",
"=. c #C6A158",
"-. c #DCAC5D",
";. c #D6A758",
":. c #DAB658",
">. c #E5AC46",
",. c #E8B844",
"<. c #F3BC43",
"1. c #E3AD53",
"2. c #E5B955",
"3. c #F0BE5D",
"4. c #C3AD6C",
"5. c #D1AF61",
"6. c #DAB668",
"7. c #C5B477",
"8. c #D6BB75",
"9. c #E5BB65",
"0. c #E8BD68",
"q. c #E3BE71",
"w. c #DCC35A",
"e. c #EDC345",
"r. c #E6C548",
"t. c #F4C544",
"y. c #F6CC43",
"u. c #F4C64C",
"i. c #F5C94D",
"p. c #FBCC4B",
"a. c #FCC945",
"s. c #F5D445",
"d. c #FCD245",
"f. c #FFDD44",
"g. c #F4D34B",
"h. c #FDDA4C",
"j. c #FAD84C",
"k. c #E6C454",
"l. c #E9C758",
"z. c #F3C455",
"x. c #F2CB54",
"c. c #F6CC5C",
"v. c #FFD752",
"b. c #FCDA51",
"n. c #FED35B",
"m. c #F8D858",
"M. c #FFE256",
"N. c #DDC468",
"B. c #DDC473",
"V. c #DEC97E",
"C. c #E8CA69",
"Z. c #F2C967",
"A. c #FCDC64",
"S. c #FBDC6D",
"D. c #F4D269",
"F. c #EDC573",
"G. c #E6C978",
"H. c #ECD175",
"J. c #E9D479",
"K. c #F3D374",
"L. c #FED671",
"P. c #FBDC74",
"I. c #F7D878",
"U. c #EED56D",
"Y. c #FEE36C",
"T. c #FFEB6D",
"R. c #FFE374",
"E. c #FFE57A",
"W. c #FFEA7B",
"Q. c #D1BF80",
"!. c #C5BA8E",
"~. c #E0BC81",
"^. c #D6C383",
"/. c #DFD283",
"(. c #E5CC82",
"). c #E8CA8C",
"_. c #E6CA86",
"`. c #EDD58D",
"'. c #E9D788",
"]. c #F4DC86",
"[. c #FBDD82",
"{. c #F6D589",
"}. c #ECD494",
"|. c #E2D29B",
" X c #EBD599",
".X c #F4DC93",
"XX c #F0DC9D",
"oX c #E8CE94",
"OX c #FDE483",
"+X c #FFEA80",
"@X c #FBE48B",
"#X c #FEEB8C",
"$X c #F7E68A",
"%X c #FFF18F",
"&X c #FCE797",
"*X c #FBEA93",
"=X c #F3E49B",
"-X c #FEEA9C",
";X c #FAE498",
":X c #FFF396",
">X c #EADBA7",
",X c #F1DDAA",
"<X c #E8DEB2",
"1X c #F4E4AC",
"2X c #FFECAA",
"3X c #F8E3A4",
"4X c #FFF6A4",
"5X c #ECE3BA",
"6X c #F5E5B3",
"7X c #FFEEB3",
"8X c #F6E8BA",
"9X c #FDF3BA",
"0X c #FFF9BB",
"qX c #FCF2B4",
"wX c #EFE4A4",
"eX c #F3EBC5",
"rX c #FFF6C2",
"tX c #FFFAC5",
"yX c #FAF4CB",
"uX c #FFFAD4",
"iX c #FFFFDD",
"pX c None",
/* pixels */
"pXpXpXpXpXpXpXpXpXpXpXpXpXpXqXqXqX2XpXpXpXpXpXpXpXpXpXpXpXpXpXpX",
"pXpXpXpXpXpXpXpXpXpXn.[.].J.U.N.l.w.k.x.i.I pXpXpXpXpXpXpXpXpXpX",
"pXpXpXpXpXpXpXpXR.=X/.w.l.g.s.m.b.s.R K Z Z t.u.pXpXpXpXpXpXpXpX",
"pXpXpXpXpXpXpX;XJ.w.j.M.W.T.g.T.S.y.j.b.U T b S K.pXpXpXpXpXpXpX",
"pXpXpXpXpXpX=Xw.s.T.A.g.$XU.Y g.r.G t.K G Y p.F V  XF.pXpXpXpXpX",
"pXpXpXpXpX.Xr.R b.*XI.Y K T U I U L N m B u.K.A n y >XF.pXpXpXpX",
"pXpXpXpX].*.j.A.Y i.K U m.E.#X#XOXY.m.a.B A C A K.Z.w }.pXpXpXpX",
"pXpXpXI.*.P m.$Xt.N n.-X4X%X+XE.A.b.v.d.U B l x 6X).p 0 U.pXpXpX",
"pXpXn.2.N U I <.M P.4X%X#X$X=XqXwXS.P P L L m a s s a q y ,.pXpX",
"pXpXc.c p.m.H n L.:XE.*X9X9X0X0XtXuXc.J N M M l > i p.A - A pXpX",
"pXt.j M H e.x c.#XY.m.wX0X0X0XrXrXuXF.n F m 3 z i 9 x a 5 6 h pX",
"pXt.d M m 3 v E.M.h.p.9XtXtXtXrX9X8X,.z.;XK.3.z 1 ; : ; 9 - d pX",
"pXD k e.l.-.6.J.U.k.l.<X5X5X5X>X,X|.6.OXH.J.'.6.&.@.;.&.;.4 ; pX",
"pXS 1 S Q.*X..Q 7.' '.OX| !.! | ^.$X8.*._.@X^ X.] o.*X^ 7.~ - ;.",
"{.>.p 9 -.W.( t ^ [ (.Y.B.{ & R.C.P.C.} Q.R.~ )   6.E.W _ O : ;.",
"3X1.9 {./.OX( o.X.|.|.K.P.} %.l...V.R.7.Q.R.~ _ $ 8.R.W * # 2 6.",
"8X5.7 >X|.R.) } } #XP.B.R.B.2.S 7.O.R.E o.E.W ;.g N.E.E 4 l k 2.",
"6X6.: 7 5.+X( @ ^ Y.c.X.I.P.=.g 5.' I.X 8.E.Q =.i G.W.E w N b 0.",
"}.q.% >._.E.` 4 S A.V.& G.R.8.@.8. ...X G.E./ 0 z G.E./ Z L M 6.",
"pX0.5 2.} X o $ <.8.& O ^ . . & Q & & ^ ' . . 8 H ! O o = I T pX",
"pXz.5 i 4 % 4 0 9 1.%.+.$.# @.u &.;.0.L.).&.d G T f D &.S i.Z pX",
"pXV d 2 z m c C 5 ; u u 6 q 0.3.Z.L.[.OX-Xi.P R j x.p.i.R.x.8 pX",
"pXpXA p x l k n s ; 6 ; 2 C .XI.[.@X&X-X'.y.f.K l.S.p y ].>.pXpX",
"pXpXh > z k m m M q i p a z Z.wX;X.XH.H.i.f.r.N.OX].F.`.F.4 pXpX",
"pXpXpXg l J c 6 x T c c m N J u.l.d.R f.s.:.G.&XC 1.qX3Xu pXpXpX",
"pXpXpXr e M G e H a.p.e.S G T P R s.r.w.B..XqX,X#.-.8X;.# pXpXpX",
"pXpXpXpXr q t.v.x.I H P.P.K.C.G.G.J. X6XtXF.y ,XyXeX9.r pXpXpXpX",
"pXpXpXpXpX* C x.P.x.l.OXt.z.2X;X.XrX{.1.1X_.&.6XyX9.r pXpXpXpXpX",
"pXpXpXpXpXpX* ,.Z..X4X3X>.1.8Xs 7 5Xq.6 ,XiXeX>X2.* pXpXpXpXpXpX",
"pXpXpXpXpXpXpXpXh z.H.1X6XuXiX).~.iXyX5X8X,XC.%.pXpXpXpXpXpXpXpX",
"pXpXpXpXpXpXpXpXpXpX8 g 1.0._.).oX).G.0.&.t pXpXpXpXpXpXpXpXpXpX",
"pXpXpXpXpXpXpXpXpXpXpXpXpX@.$.;.-.-.=.pXpXpXpXpXpXpXpXpXpXpXpXpX"
};
